<svg xmlns="http://www.w3.org/2000/svg" width="206" height="211" viewBox="0 0 206 211"><rect width="100%" height="100%" fill="#DDDDDD"/><path fill="#999999" d="M43.51 90.49h4.94v29.72h-4.94V90.49Zm18.96 8.88q2.28 0 4.15.74 1.87.74 3.2 2.1t2.05 3.32q.72 1.96.72 4.38 0 2.44-.72 4.4-.72 1.96-2.05 3.34-1.33 1.38-3.2 2.12-1.87.74-4.15.74-2.3 0-4.18-.74t-3.21-2.12q-1.33-1.38-2.06-3.34t-.73-4.4q0-2.42.73-4.38t2.06-3.32q1.33-1.36 3.21-2.1t4.18-.74Zm0 17.34q2.56 0 3.79-1.72t1.23-5.04q0-3.32-1.23-5.06-1.23-1.74-3.79-1.74-2.6 0-3.85 1.75t-1.25 5.05q0 3.3 1.25 5.03 1.25 1.73 3.85 1.73Zm18.18-16.12.34 1.62q.62-.62 1.31-1.15.69-.53 1.46-.9t1.65-.58q.88-.21 1.92-.21 1.68 0 2.98.57t2.17 1.6q.87 1.03 1.32 2.46.45 1.43.45 3.15v13.06h-4.94v-13.06q0-1.88-.86-2.91-.86-1.03-2.62-1.03-1.28 0-2.4.58-1.12.58-2.12 1.58v14.84h-4.94V99.69h3.02q.96 0 1.26.9Zm31.16 13.54v-9.2q-.84-1.02-1.83-1.44-.99-.42-2.13-.42-1.12 0-2.02.42-.9.42-1.54 1.27-.64.85-.98 2.16-.34 1.31-.34 3.09 0 1.8.29 3.05.29 1.25.83 2.04t1.32 1.14q.78.35 1.74.35 1.54 0 2.62-.64t2.04-1.82Zm0-23.64h4.94v29.72h-3.02q-.98 0-1.24-.9l-.42-1.98q-1.24 1.42-2.85 2.3-1.61.88-3.75.88-1.68 0-3.08-.7-1.4-.7-2.41-2.03-1.01-1.33-1.56-3.29t-.55-4.48q0-2.28.62-4.24.62-1.96 1.78-3.4 1.16-1.44 2.78-2.25 1.62-.81 3.64-.81 1.72 0 2.94.54t2.18 1.46V90.49Zm18.9 8.88q2.28 0 4.15.74 1.87.74 3.2 2.1t2.05 3.32q.72 1.96.72 4.38 0 2.44-.72 4.4-.72 1.96-2.05 3.34-1.33 1.38-3.2 2.12-1.87.74-4.15.74-2.3 0-4.18-.74t-3.21-2.12q-1.33-1.38-2.06-3.34t-.73-4.4q0-2.42.73-4.38t2.06-3.32q1.33-1.36 3.21-2.1t4.18-.74Zm0 17.34q2.56 0 3.79-1.72t1.23-5.04q0-3.32-1.23-5.06-1.23-1.74-3.79-1.74-2.6 0-3.85 1.75t-1.25 5.05q0 3.3 1.25 5.03 1.25 1.73 3.85 1.73Zm18.18-16.12.34 1.62q.62-.62 1.31-1.15.69-.53 1.46-.9t1.65-.58q.88-.21 1.92-.21 1.68 0 2.98.57t2.17 1.6q.87 1.03 1.32 2.46.45 1.43.45 3.15v13.06h-4.94v-13.06q0-1.88-.86-2.91-.86-1.03-2.62-1.03-1.28 0-2.4.58-1.12.58-2.12 1.58v14.84h-4.94V99.69h3.02q.96 0 1.26.9Z"/></svg>