<svg xmlns="http://www.w3.org/2000/svg" width="206" height="211" viewBox="0 0 206 211"><rect width="100%" height="100%" fill="#DDDDDD"/><path fill="#999999" d="M50.74 101.1v13.34q1.22 1.47 2.66 2.08 1.43.61 3.11.61 1.63 0 2.93-.61 1.31-.61 2.22-1.85.91-1.25 1.41-3.15.49-1.9.49-4.48 0-2.61-.42-4.42t-1.2-2.95q-.79-1.13-1.9-1.65-1.12-.52-2.54-.52-2.23 0-3.8.94-1.57.94-2.96 2.66Zm-.95-7.4.58 2.76q1.82-2.06 4.14-3.34 2.32-1.28 5.45-1.28 2.44 0 4.46 1.02 2.01 1.01 3.48 2.94 1.46 1.93 2.26 4.76.8 2.83.8 6.48 0 3.34-.9 6.18t-2.57 4.93q-1.67 2.09-4.03 3.26-2.36 1.17-5.29 1.17-2.5 0-4.27-.76-1.77-.77-3.16-2.14v12.18h-7.16V92.4h4.38q1.39 0 1.83 1.3Zm42.45 20.76v-5.01q-3.1.14-5.22.53-2.11.4-3.39 1-1.28.61-1.83 1.43-.55.81-.55 1.76 0 1.89 1.12 2.7 1.11.81 2.91.81 2.21 0 3.82-.79 1.61-.8 3.14-2.43ZM77.1 98.83l-1.27-2.29q5.13-4.7 12.35-4.7 2.61 0 4.67.86t3.48 2.38q1.42 1.52 2.16 3.64.74 2.11.74 4.64v18.79h-3.25q-1.01 0-1.56-.3-.55-.31-.87-1.24l-.64-2.14q-1.13 1.01-2.2 1.78-1.08.77-2.24 1.29-1.16.52-2.48.8-1.32.27-2.91.27-1.89 0-3.48-.5-1.6-.51-2.76-1.53-1.16-1.01-1.79-2.52-.64-1.51-.64-3.51 0-1.13.37-2.25.38-1.11 1.24-2.13.85-1.01 2.22-1.91 1.36-.9 3.34-1.57 1.99-.66 4.63-1.08 2.64-.42 6.03-.51v-1.74q0-2.99-1.27-4.42-1.28-1.44-3.69-1.44-1.74 0-2.88.41-1.15.4-2.02.91-.87.51-1.58.91-.71.41-1.58.41-.75 0-1.27-.39-.53-.39-.85-.92Zm35.18-4.64.44 3.37q1.39-2.67 3.3-4.19 1.92-1.53 4.53-1.53 2.06 0 3.3.9l-.46 5.37q-.15.52-.42.74-.28.22-.74.22-.44 0-1.29-.15-.86-.14-1.67-.14-1.19 0-2.12.34-.92.35-1.66 1-.74.66-1.31 1.58-.56.93-1.06 2.12v18.33h-7.16V92.4h4.2q1.11 0 1.54.39.44.39.58 1.4Zm15.55-1.79h7.19v29.75h-7.19V92.4Zm8.17-8.68q0 .93-.37 1.74-.38.82-1 1.43-.63.6-1.47.97-.84.36-1.8.36-.92 0-1.75-.36-.83-.37-1.44-.97-.61-.61-.97-1.43-.36-.81-.36-1.74 0-.95.36-1.79.36-.84.97-1.45t1.44-.97q.83-.37 1.75-.37.96 0 1.8.37.84.36 1.47.97.62.61 1 1.45.37.84.37 1.79Zm26.1 11.89-1.62 2.59q-.29.46-.61.65t-.81.19q-.52 0-1.12-.29-.59-.29-1.38-.66-.78-.36-1.78-.65-1-.29-2.36-.29-2.12 0-3.32.9-1.21.9-1.21 2.35 0 .96.63 1.61.62.65 1.65 1.14 1.03.5 2.33.89 1.31.39 2.66.85 1.35.47 2.65 1.06 1.31.6 2.34 1.51 1.03.91 1.65 2.19.62 1.28.62 3.07 0 2.15-.77 3.96-.76 1.82-2.27 3.14-1.51 1.31-3.73 2.05-2.22.74-5.12.74-1.53 0-3-.27-1.46-.28-2.81-.77t-2.5-1.16q-1.14-.67-2.01-1.45l1.65-2.73q.32-.49.76-.75.43-.26 1.1-.26.66 0 1.26.38.59.37 1.38.81.78.43 1.84.81 1.06.38 2.68.38 1.28 0 2.19-.31.91-.3 1.51-.8.59-.49.87-1.14.27-.65.27-1.35 0-1.04-.62-1.71-.62-.67-1.65-1.16-1.03-.49-2.35-.88-1.32-.4-2.7-.86-1.38-.46-2.7-1.09-1.32-.62-2.35-1.58-1.02-.96-1.65-2.35-.62-1.39-.62-3.36 0-1.83.72-3.48.73-1.65 2.13-2.89 1.41-1.23 3.51-1.97 2.11-.74 4.86-.74 3.08 0 5.6 1.02 2.52 1.01 4.2 2.66Z"/></svg>