<svg xmlns="http://www.w3.org/2000/svg" width="206" height="211" viewBox="0 0 206 211"><rect width="100%" height="100%" fill="#DDDDDD"/><path fill="#999999" d="M51.155 118.51q-2.94 0-4.52-1.66-1.57-1.66-1.57-4.59v-12.6h-2.31q-.44 0-.75-.29-.31-.28-.31-.86v-2.15l3.63-.6 1.15-6.16q.11-.44.42-.68.3-.24.79-.24h2.81v7.11h6.03v3.87h-6.03v12.23q0 1.06.52 1.65.52.59 1.42.59.51 0 .85-.12.34-.12.59-.25.25-.13.45-.25t.4-.12q.24 0 .39.12.16.12.33.36l1.63 2.64q-1.19.99-2.73 1.5-1.54.5-3.19.5Zm18.84-23.27q2.5 0 4.56.81 2.06.81 3.52 2.31t2.26 3.65q.79 2.16.79 4.82 0 2.68-.79 4.84-.8 2.16-2.26 3.67-1.46 1.52-3.52 2.34-2.06.81-4.56.81-2.53 0-4.6-.81-2.07-.82-3.53-2.34-1.47-1.51-2.27-3.67t-.8-4.84q0-2.66.8-4.82.8-2.15 2.27-3.65 1.46-1.5 3.53-2.31t4.6-.81Zm0 19.07q2.81 0 4.16-1.89 1.36-1.89 1.36-5.55 0-3.65-1.36-5.56-1.35-1.92-4.16-1.92-2.86 0-4.24 1.93-1.37 1.92-1.37 5.55t1.37 5.54q1.38 1.9 4.24 1.9Zm15.29-28.84h5.43v18.72h1.01q.55 0 .87-.14.32-.15.65-.59l5.61-6.93q.35-.46.78-.7.43-.24 1.11-.24h4.97l-7.01 8.38q-.75.99-1.63 1.52.46.33.82.77.37.44.7.94l7.52 10.96h-4.91q-.63 0-1.1-.21-.46-.21-.77-.76l-5.76-8.56q-.31-.5-.64-.66-.33-.15-.99-.15h-1.23v10.34h-5.43V85.47Zm23.69 10.12h5.46v22.57h-5.46V95.59Zm6.2-6.58q0 .7-.28 1.32-.29.62-.76 1.08-.47.46-1.11.74-.64.27-1.37.27-.7 0-1.33-.27-.62-.28-1.09-.74-.46-.46-.73-1.08-.28-.62-.28-1.32 0-.73.28-1.36.27-.64.73-1.1.47-.47 1.09-.74.63-.28 1.33-.28.73 0 1.37.28.64.27 1.11.74.47.46.76 1.1.28.63.28 1.36Zm20.95 6.58h4.35l-12.29 28.77q-.25.58-.63.87-.39.3-1.18.3h-4.05l4.23-9.06-9.13-20.88h4.77q.64 0 1 .31.37.3.54.7l4.8 11.7q.24.6.4 1.19.17.6.32 1.21l.4-1.22q.2-.6.44-1.2l4.53-11.68q.18-.44.58-.73.41-.28.92-.28Zm17.05-.35q2.51 0 4.56.81 2.06.81 3.52 2.31 1.47 1.5 2.26 3.65.79 2.16.79 4.82 0 2.68-.79 4.84-.79 2.16-2.26 3.67-1.46 1.52-3.52 2.34-2.05.81-4.56.81-2.53 0-4.6-.81-2.07-.82-3.53-2.34-1.46-1.51-2.27-3.67-.8-2.16-.8-4.84 0-2.66.8-4.82.81-2.15 2.27-3.65t3.53-2.31q2.07-.81 4.6-.81Zm0 19.07q2.81 0 4.17-1.89 1.35-1.89 1.35-5.55 0-3.65-1.35-5.56-1.36-1.92-4.17-1.92-2.86 0-4.24 1.93-1.37 1.92-1.37 5.55t1.37 5.54q1.38 1.9 4.24 1.9Z"/></svg>